<svg width="293" height="382" viewBox="0 0 293 382" fill="none" xmlns="http://www.w3.org/2000/svg">
<path d="M224.832 246.138H4.34521V364.841H224.832V246.138Z" fill="#E6E6E6"/>
<path d="M22.0826 369.753H8.16577V380.259H22.0826V369.753Z" fill="#E6E6E6"/>
<path d="M241.615 237.269H227.698V380.122H241.615V237.269Z" fill="#E6E6E6"/>
<path d="M224.287 237.269H220.603H8.16561H4.48171H0.797852V380.122H8.16561V372.072H220.603V380.122H227.971V237.269H224.287ZM220.466 299.895H118V250.231H220.466V299.895ZM8.16561 250.231H110.632V359.247H8.16561V250.231ZM118 359.247V307.263H220.466V359.247H118Z" fill="#F0F0F0"/>
<path d="M110.632 255.552H14.9878V359.247H110.632V255.552Z" fill="#F5F5F5"/>
<path d="M106.266 304.262C106.266 306.717 104.219 308.764 101.764 308.764C99.3076 308.764 97.261 306.717 97.261 304.262C97.261 301.806 99.3076 299.759 101.764 299.759C104.356 299.895 106.266 301.806 106.266 304.262Z" fill="#FAFAFA"/>
<path d="M101.9 308.764C100.126 308.764 98.6254 307.673 97.8068 306.172C97.5339 306.717 97.3975 307.4 97.3975 308.082C97.3975 310.538 99.444 312.584 101.9 312.584C104.356 312.584 106.403 310.538 106.403 308.082C106.403 307.4 106.266 306.854 105.993 306.172C105.175 307.673 103.674 308.764 101.9 308.764Z" fill="#E0E0E0"/>
<path d="M52.0994 359.247H74.8849L85.8001 255.552H63.0146L52.0994 359.247Z" fill="#FAFAFA"/>
<path d="M80.7517 359.247H85.2543L96.1695 255.552H91.6669L80.7517 359.247Z" fill="#FAFAFA"/>
<path d="M141.058 255.416H132.053V299.759H141.058V255.416Z" fill="#FAFAFA"/>
<path d="M178.579 255.416H169.574V299.759H178.579V255.416Z" fill="#F5F5F5"/>
<path d="M150.063 258.554H141.058V299.759H150.063V258.554Z" fill="#F5F5F5"/>
<path d="M169.574 258.554H160.569V299.759H169.574V258.554Z" fill="#FAFAFA"/>
<path d="M160.569 255.416H154.702V299.759H160.569V255.416Z" fill="#EBEBEB"/>
<path d="M154.702 258.554H150.2V299.759H154.702V258.554Z" fill="#FAFAFA"/>
<path d="M187.584 255.416H178.579V299.759H187.584V255.416Z" fill="#EBEBEB"/>
<path d="M196.59 258.554H187.584V299.759H196.59V258.554Z" fill="#E6E6E6"/>
<path d="M215.964 258.554H206.959V299.759H215.964V258.554Z" fill="#E6E6E6"/>
<path d="M206.959 255.416H201.092V299.759H206.959V255.416Z" fill="#FAFAFA"/>
<path d="M201.092 258.554H196.59V299.759H201.092V258.554Z" fill="#EBEBEB"/>
<path d="M220.466 256.507H215.964V299.759H220.466V256.507Z" fill="#EBEBEB"/>
<path d="M211.584 359.25H220.589V314.907H211.584V359.25Z" fill="#EBEBEB"/>
<path d="M174.067 359.25H183.072V314.907H174.067V359.25Z" fill="#FAFAFA"/>
<path d="M202.524 359.228H211.529V318.023H202.524V359.228Z" fill="#FAFAFA"/>
<path d="M183.127 359.228H192.132V318.023H183.127V359.228Z" fill="#EBEBEB"/>
<path d="M192.129 359.25H197.996V314.907H192.129V359.25Z" fill="#FAFAFA"/>
<path d="M197.98 359.228H202.483V318.023H197.98V359.228Z" fill="#F5F5F5"/>
<path d="M165.007 359.25H174.012V314.907H165.007V359.25Z" fill="#EBEBEB"/>
<path d="M156.083 359.228H165.088V318.023H156.083V359.228Z" fill="#F5F5F5"/>
<path d="M136.686 359.228H145.691V318.023H136.686V359.228Z" fill="#E6E6E6"/>
<path d="M145.552 359.25H151.419V314.907H145.552V359.25Z" fill="#FAFAFA"/>
<path d="M126.292 359.25H132.159V314.907H126.292V359.25Z" fill="#FAFAFA"/>
<path d="M151.539 359.228H156.042V318.023H151.539V359.228Z" fill="#EBEBEB"/>
<path d="M132.142 359.209H136.645V315.957H132.142V359.209Z" fill="#EBEBEB"/>
<path d="M108.04 334.291L93.8498 353.938L84.7083 348.48L94.532 326.65L108.04 334.291Z" fill="#B55B52"/>
<path d="M88.5287 340.84L97.6702 349.163C97.9431 349.436 98.0795 349.981 97.8066 350.391L92.7583 359.123C92.2126 360.078 90.9846 360.214 90.3024 359.532C87.1643 356.53 85.7999 354.893 81.7067 351.209C79.2508 348.89 70.2457 341.249 66.8347 338.111C63.4237 335.109 66.0161 331.153 67.7898 332.108C75.294 336.474 83.0711 340.021 86.755 340.021C87.3007 340.021 87.9829 340.294 88.5287 340.84Z" fill="#263238"/>
<path d="M83.2075 337.975C83.344 339.475 85.527 340.84 86.8914 341.522C87.0279 341.522 87.1643 341.522 87.3007 341.522C87.4372 341.386 87.4372 341.249 87.4372 341.249C87.1643 340.43 86.0728 336.747 84.8448 336.337C84.5719 336.337 84.299 336.337 84.0262 336.61L83.8897 336.747C83.344 337.019 83.2075 337.429 83.2075 337.975ZM83.8897 337.838C83.8897 337.565 84.0262 337.156 84.2991 336.883C84.4355 336.747 84.5719 336.747 84.5719 336.747C85.2541 336.883 86.0728 338.793 86.6185 340.43C84.9812 339.612 83.8897 338.52 83.8897 337.838Z" fill="#40B93C"/>
<path d="M86.755 341.249C86.755 341.386 86.8914 341.386 87.0279 341.522C87.1643 341.522 87.3007 341.522 87.3007 341.386C87.4371 341.249 89.3473 338.793 89.0745 337.019C89.0745 336.61 88.8016 336.201 88.3923 335.928C87.8465 335.519 87.4371 335.791 87.3007 335.928L87.1643 336.064C86.3456 337.156 86.3456 340.158 86.755 341.249ZM87.7101 336.474C87.7101 336.474 87.8465 336.337 88.1194 336.474C88.2558 336.61 88.3922 336.883 88.5287 337.156C88.6651 338.111 87.8465 339.612 87.3007 340.43C86.8914 339.066 87.1643 336.883 87.7101 336.474Z" fill="#40B93C"/>
<path d="M92.6218 330.47C103.673 304.683 114.179 272.62 123.594 249.425C136.283 218.18 180.899 159.238 180.899 159.238L184.173 155.281L222.513 153.098V167.288C222.513 167.288 154.566 246.423 146.925 267.571C138.602 290.766 120.865 317.372 104.765 339.202L92.6218 330.47Z" fill="#40B93C"/>
<path d="M105.72 338.793L103.401 341.113C103.401 341.113 90.8483 332.38 90.9847 332.244C91.1212 332.108 92.622 329.242 92.622 329.242L105.72 338.793Z" fill="#40B93C"/>
<path opacity="0.4" d="M105.72 338.793L103.401 341.113C103.401 341.113 90.8483 332.38 90.9847 332.244C91.1212 332.108 92.622 329.242 92.622 329.242L105.72 338.793Z" fill="white"/>
<path opacity="0.2" d="M179.534 219.954C186.766 185.98 199.727 167.151 199.727 167.151L206.549 172.2L208.732 183.797C200.546 193.484 189.767 206.719 179.534 219.954Z" fill="black"/>
<path d="M219.511 348.071L217.055 372.085H206.413L203.957 348.071H219.511Z" fill="#B55B52"/>
<path d="M205.321 369.083L217.738 368.81C218.147 368.81 218.556 369.083 218.693 369.492L221.012 379.316C221.285 380.271 220.466 381.362 219.375 381.362C215.009 381.362 212.962 381.226 207.505 381.226C204.094 381.226 192.36 381.908 187.721 381.908C183.218 382.045 182.4 377.406 184.31 376.996C192.769 374.95 200.819 372.221 203.548 369.765C204.094 369.356 204.639 369.083 205.321 369.083Z" fill="#263238"/>
<path d="M199.591 370.584C200.682 371.539 203.275 370.993 204.639 370.72C204.776 370.72 204.912 370.584 204.912 370.447C204.912 370.311 204.912 370.174 204.776 370.174C204.093 369.765 200.682 367.855 199.455 368.401C199.318 368.537 199.045 368.674 199.045 369.219C199.045 369.356 199.045 369.356 199.045 369.492C199.045 369.901 199.182 370.311 199.591 370.584ZM199.864 370.174C199.591 369.901 199.455 369.629 199.455 369.219C199.455 369.083 199.591 368.946 199.591 368.946C200.137 368.674 202.047 369.492 203.548 370.311C201.91 370.584 200.546 370.584 199.864 370.174Z" fill="#40B93C"/>
<path d="M204.366 370.72C204.503 370.72 204.639 370.72 204.639 370.72C204.776 370.72 204.776 370.584 204.776 370.447C204.776 370.311 204.366 367.173 203.138 366.081C202.729 365.808 202.456 365.672 202.047 365.808C201.365 365.945 201.228 366.354 201.228 366.49C201.228 366.627 201.228 366.627 201.228 366.763C201.228 367.991 203.275 370.038 204.366 370.72ZM201.774 366.49C201.774 366.49 201.774 366.354 202.047 366.218C202.32 366.218 202.456 366.218 202.729 366.354C203.411 366.9 203.821 368.537 204.094 369.629C203.002 368.946 201.638 367.173 201.774 366.49Z" fill="#40B93C"/>
<path d="M222.513 270.573C225.651 290.357 222.513 329.515 219.238 357.758L204.639 357.349C201.092 328.014 195.634 286.537 193.178 265.798C189.222 232.37 198.09 154.599 198.09 154.599L237.931 153.78C237.931 153.78 237.931 160.329 236.021 170.562C230.154 200.579 219.784 253.927 222.513 270.573Z" fill="#40B93C"/>
<path d="M220.057 357.076L219.511 360.351C219.511 360.351 204.23 360.351 204.23 360.078C204.23 359.941 203.821 356.667 203.821 356.667L220.057 357.076Z" fill="#40B93C"/>
<path opacity="0.4" d="M220.057 357.076L219.511 360.351C219.511 360.351 204.23 360.351 204.23 360.078C204.23 359.941 203.821 356.667 203.821 356.667L220.057 357.076Z" fill="white"/>
<path d="M184.992 78.6018L175.987 97.4305C174.486 100.569 172.985 103.707 171.348 106.708C170.529 108.209 169.711 109.71 169.028 111.211C168.619 111.893 168.21 112.712 167.801 113.258L167.255 114.213C167.118 114.349 167.118 114.486 166.982 114.622C166.436 115.304 165.345 116.259 164.253 117.078C163.025 117.897 161.797 118.715 160.296 119.534C157.568 121.171 154.429 122.536 151.291 123.9C145.015 126.629 138.466 129.085 132.053 131.404L133.554 138.226C140.785 137.271 147.88 135.907 154.839 133.724C158.386 132.632 161.934 131.541 165.345 129.903C167.118 129.085 168.892 128.266 170.666 127.174C172.439 126.083 174.35 124.855 176.123 122.945C176.533 122.536 177.078 121.853 177.488 121.308L178.306 120.08C178.852 119.261 179.398 118.442 179.944 117.76C181.035 116.259 181.99 114.622 182.945 112.985C184.856 109.847 186.629 106.708 188.267 103.57C191.678 97.1577 194.816 90.8814 197.681 84.1959L184.992 78.6018Z" fill="#B55B52"/>
<path d="M205.867 77.6467C207.777 86.9246 184.856 114.349 184.856 114.349L168.619 105.208C168.619 105.208 173.395 91.4272 181.445 79.9662C189.767 67.823 203.684 67.2773 205.867 77.6467Z" fill="#263238"/>
<path opacity="0.2" d="M206.004 78.8747C202.047 76.9646 194.406 78.6018 188.266 86.2425C182.263 93.8831 178.852 106.708 177.897 110.392L184.855 114.349C184.855 114.349 206.14 88.9713 206.004 78.8747Z" fill="black"/>
<path d="M132.872 131.268L126.459 130.722C123.048 130.449 120.046 133.041 120.046 136.452C119.91 140.955 124.822 143.957 128.778 141.774C130.825 140.682 132.735 139.318 134.372 137.953L132.872 131.268Z" fill="#B55B52"/>
<path d="M194.133 70.6883C194.133 70.6883 181.172 99.2043 183.491 157.464C200.955 157.328 229.062 154.599 237.521 154.463C239.295 146.413 239.295 114.076 252.53 76.0095C253.621 72.7349 251.575 69.1875 248.164 68.7781C244.753 68.2324 240.25 67.8231 235.884 67.5502C228.516 67.2773 217.874 67.1408 211.325 67.6866C202.593 68.5052 194.133 70.6883 194.133 70.6883Z" fill="#263238"/>
<path d="M242.57 41.4901C238.34 48.8578 231.927 62.5019 235.884 67.5502C227.152 70.5518 224.423 78.1925 214.19 76.6916C209.688 76.0094 208.869 71.6434 210.643 67.823C220.33 65.7764 222.376 59.3638 222.922 53.6333L242.57 41.4901Z" fill="#B55B52"/>
<path opacity="0.2" d="M220.603 61.6833C222.104 59.2273 222.649 56.3621 222.922 53.7697L232.882 47.6299L236.703 53.9062C236.703 53.7697 231.109 62.9112 220.603 61.6833Z" fill="black"/>
<path d="M221.967 15.4301C213.508 17.3402 213.372 35.6232 216.646 38.0791C222.649 42.5816 232.473 13.1106 221.967 15.4301Z" fill="#263238"/>
<path d="M244.48 35.0774C242.024 45.3104 240.932 51.3138 234.793 55.6799C225.515 62.229 213.644 55.1341 213.099 44.3553C212.553 34.6681 216.783 19.6597 227.698 17.3402C238.34 15.1571 247.072 24.8444 244.48 35.0774Z" fill="#B55B52"/>
<path d="M254.44 28.5283C253.621 34.6681 243.798 49.5401 239.568 48.3121C235.338 47.0841 237.112 33.4401 240.796 25.2537C236.976 23.3436 206.004 21.5698 216.51 13.5199C216.51 13.5199 209.688 1.3767 222.24 7.38006C222.24 7.38006 226.197 -8.1741 232.473 5.87923C232.473 5.87923 240.66 -5.03598 243.388 9.15379C243.388 9.15379 251.438 4.92415 251.029 15.2936C251.029 15.2936 260.989 15.43 254.031 22.252C254.031 22.252 262.899 26.3452 254.44 28.5283Z" fill="#263238"/>
<path d="M247.072 47.2206C245.162 49.2672 242.433 50.3587 240.114 50.4951C236.566 50.6316 235.748 47.357 237.385 44.3553C238.886 41.763 242.433 38.6248 245.708 39.8528C248.846 41.0808 249.255 44.9011 247.072 47.2206Z" fill="#B55B52"/>
<path d="M226.743 35.8961C226.606 36.7147 226.06 37.3969 225.515 37.2605C224.969 37.124 224.696 36.4418 224.832 35.6232C224.969 34.8045 225.515 34.1223 226.06 34.2588C226.606 34.2588 226.879 35.0774 226.743 35.8961Z" fill="#263238"/>
<path d="M217.328 34.1223C217.192 34.941 216.646 35.6232 216.1 35.4867C215.555 35.3503 215.282 34.6681 215.418 33.8495C215.555 33.0308 216.1 32.3486 216.646 32.4851C217.055 32.4851 217.465 33.3037 217.328 34.1223Z" fill="#263238"/>
<path d="M221.694 35.3503C221.694 35.3503 218.965 39.8528 216.373 41.763C217.601 43.4002 220.193 43.2638 220.193 43.2638L221.694 35.3503Z" fill="#A02724"/>
<path d="M221.694 47.2206C221.558 47.2206 221.558 47.0842 221.558 46.9477C221.558 46.8113 221.694 46.6748 221.831 46.8113C225.515 47.4935 227.698 45.174 227.698 45.174C227.834 45.0375 227.971 45.0375 228.107 45.174C228.243 45.3104 228.243 45.4469 228.107 45.5833C227.971 45.5833 225.651 47.9028 221.694 47.2206Z" fill="#263238"/>
<path d="M231.245 32.7579C231.109 32.7579 230.972 32.6215 230.972 32.4851C230.017 30.5749 228.244 30.302 228.107 30.302C227.834 30.302 227.698 30.0291 227.698 29.7562C227.698 29.4834 227.971 29.3469 228.244 29.3469C228.38 29.3469 230.699 29.6198 231.927 32.0757C232.064 32.3486 231.927 32.6215 231.655 32.7579C231.518 32.8944 231.382 32.8944 231.245 32.7579Z" fill="#263238"/>
<path d="M215.418 30.0291C215.418 30.0291 215.282 30.0291 215.282 29.8927C215.009 29.7563 215.009 29.3469 215.145 29.2105C216.783 27.0275 219.102 27.0275 219.238 27.0275C219.511 27.0275 219.784 27.3003 219.648 27.5732C219.648 27.8461 219.375 28.119 219.102 27.9825C218.966 27.9825 217.192 27.9825 215.964 29.7563C215.827 30.0291 215.691 30.1656 215.418 30.0291Z" fill="#263238"/>
<path d="M225.787 19.2503C225.787 19.2503 218.42 20.069 219.511 23.0707C220.603 26.0723 232.882 21.8427 232.882 21.8427L225.787 19.2503Z" fill="#263238"/>
<path d="M233.701 20.7512C233.701 20.7512 226.333 21.5698 227.425 24.5715C228.517 27.5732 240.796 23.3435 240.796 23.3435L233.701 20.7512Z" fill="#263238"/>
<path d="M290.733 368.401C290.596 368.401 285.821 366.763 233.701 366.763C226.197 366.763 219.92 363.898 214.872 358.168C191.268 331.289 211.325 246.56 217.874 195.94C219.648 182.706 221.012 172.2 221.012 167.561C221.012 164.013 219.784 161.285 217.328 159.374C208.46 152.279 186.083 155.281 178.306 156.918L176.805 150.233C178.033 149.96 208.46 143.411 221.558 154.053C225.651 157.328 227.834 161.967 227.834 167.561C227.834 172.609 226.47 182.706 224.696 196.759C218.693 243.012 198.363 328.969 220.057 353.529C223.741 357.758 228.243 359.805 233.701 359.805C287.185 359.805 291.824 361.579 292.37 361.579L290.733 368.401Z" fill="#40B93C"/>
<g opacity="0.7">
<path d="M290.733 368.401C290.596 368.401 285.821 366.763 233.701 366.763C226.197 366.763 219.92 363.898 214.872 358.168C191.268 331.289 211.325 246.56 217.874 195.94C219.648 182.706 221.012 172.2 221.012 167.561C221.012 164.013 219.784 161.285 217.328 159.374C208.46 152.279 186.083 155.281 178.306 156.918L176.805 150.233C178.033 149.96 208.46 143.411 221.558 154.053C225.651 157.328 227.834 161.967 227.834 167.561C227.834 172.609 226.47 182.706 224.696 196.759C218.693 243.012 198.363 328.969 220.057 353.529C223.741 357.758 228.243 359.805 233.701 359.805C287.185 359.805 291.824 361.579 292.37 361.579L290.733 368.401Z" fill="white"/>
</g>
<path d="M95.2144 122.126V146.958V159.511V184.479L188.949 169.744C193.451 169.062 196.726 165.241 196.726 160.602V159.511V146.958V145.867C196.726 141.364 193.451 137.408 188.949 136.725L95.2144 122.126Z" fill="#40B93C"/>
<path opacity="0.4" d="M95.2144 122.126V146.958V159.511V184.479L188.949 169.744C193.451 169.062 196.726 165.241 196.726 160.602V159.511V146.958V145.867C196.726 141.364 193.451 137.408 188.949 136.725L95.2144 122.126Z" fill="white"/>
<path opacity="0.2" d="M188.949 161.694L95.2144 176.429V184.479L188.949 169.744C193.451 169.062 196.726 165.241 196.726 160.602V159.511V152.552C196.726 157.191 193.451 161.012 188.949 161.694Z" fill="#263238"/>
<path d="M92.3491 112.848H56.4653V150.915H143.514V131.404L92.3491 112.848Z" fill="#40B93C"/>
<path opacity="0.6" d="M92.3491 112.848H56.4653V150.915H143.514V131.404L92.3491 112.848Z" fill="white"/>
<path d="M107.63 191.574L56.4653 173.018V112.848L107.63 131.404V191.574Z" fill="#40B93C"/>
<path opacity="0.4" d="M107.63 191.574L56.4653 173.018V112.848L107.63 131.404V191.574Z" fill="white"/>
<path d="M143.514 131.404H107.63V191.574H143.514V131.404Z" fill="#40B93C"/>
<path opacity="0.2" d="M143.514 131.404H107.63V191.574H143.514V131.404Z" fill="white"/>
<path d="M91.2576 145.867V132.905L72.8382 126.356V139.181L65.334 136.452V168.789L98.7618 180.932V148.596L91.2576 145.867Z" fill="#263238"/>
<path opacity="0.1" d="M91.2576 145.867V132.905L72.8382 126.356V139.181L65.334 136.452V168.789L98.7618 180.932V148.596L91.2576 145.867Z" fill="white"/>
<path d="M98.7618 176.429V159.102H71.3374V170.972L86.4822 176.429H98.7618Z" fill="#40B93C"/>
<path opacity="0.2" d="M98.7618 176.429V159.102H71.3374V170.972L86.4822 176.429H98.7618Z" fill="white"/>
<path d="M69.8365 131.131L65.334 129.63V123.627L69.8365 125.128V131.131Z" fill="white"/>
<path d="M98.7618 141.637L94.3958 140.136V134.133L98.7618 135.634V141.637Z" fill="#40B93C"/>
<path d="M98.7617 178.749V166.879H92.7583V178.749H98.7617Z" fill="#40B93C"/>
<path opacity="0.2" d="M98.7617 178.749V166.879H92.7583V178.749H98.7617Z" fill="black"/>
<path d="M71.3374 170.972L92.7585 178.749V166.879L71.3374 159.102V170.972Z" fill="#40B93C"/>
<path d="M245.162 81.3306C243.934 84.1958 242.57 87.4704 241.205 90.3357C239.841 93.3373 229.199 118.169 228.38 119.261C227.561 120.216 193.997 134.679 185.947 138.226L186.629 142.456C186.902 144.093 187.039 144.639 188.676 144.502C194.679 144.093 226.47 135.224 228.38 134.815C229.335 134.542 233.155 133.314 234.52 132.769C242.024 130.04 250.347 107.118 251.848 103.707C252.666 102.07 256.077 93.3373 256.759 91.7001C257.442 90.0628 258.124 88.4255 258.806 86.5153L245.162 81.3306Z" fill="#B55B52"/>
<path d="M186.493 138.226L176.805 140.818C173.667 141.501 171.894 145.048 173.122 148.732C174.759 153.644 180.216 155.418 182.945 151.87C184.173 150.369 187.448 146.413 188.403 144.639C188.676 144.093 188.676 143.411 188.403 142.865L186.493 138.226Z" fill="#B55B52"/>
<path d="M255.122 71.0976C269.858 76.5552 251.711 115.304 251.711 115.304L230.699 107.664C230.699 107.664 235.202 98.7949 239.295 86.7882C243.115 75.0543 245.708 67.6866 255.122 71.0976Z" fill="#263238"/>
</svg>
