<svg width="284" height="422" viewBox="0 0 284 422" fill="none" xmlns="http://www.w3.org/2000/svg">
<path d="M23.6503 243.925C26.4179 240.78 30.4434 237.383 34.7206 236.754C47.6779 234.741 46.2941 261.285 46.1683 268.078C46.1683 269.336 48.0553 269.336 48.0553 268.078C48.1811 260.027 49.6907 234.867 36.2302 234.741C30.9466 234.616 25.7889 238.893 22.3923 242.541C21.5117 243.421 22.7697 244.805 23.6503 243.925Z" fill="#E0E0E0"/>
<path d="M63.906 227.571C61.2642 227.948 59.1256 231.093 57.8676 233.232C51.9551 243.296 51.4519 256.882 51.0745 268.204C51.0745 269.462 52.9615 269.462 52.9615 268.204C53.3388 257.385 53.7162 244.679 59.1256 234.867C60.132 232.98 62.019 229.835 64.4092 229.458C65.6672 229.206 65.164 227.319 63.906 227.571Z" fill="#E0E0E0"/>
<path d="M22.8955 243.296C22.8955 243.296 11.1961 223.923 2.64178 241.409C1.25799 244.302 0.377398 247.195 0 250.089C3.64818 248.453 11.1961 245.56 11.3219 249.586C11.4477 252.731 6.91896 258.014 3.52238 261.537C1.63539 263.549 0.880594 266.443 1.63539 269.084C3.52238 276.003 6.16416 280.784 6.16416 280.784C6.16416 280.784 8.68015 279.777 12.4541 278.016C14.8443 276.884 16.4797 274.62 16.9829 272.104C17.4861 269.21 18.4925 266.317 20.0021 265.311C21.5117 264.43 22.7697 266.065 23.6502 267.952C24.2792 269.588 26.292 270.091 27.6758 269.084C29.5628 267.701 31.324 266.317 33.0852 264.682C34.0916 263.801 34.2174 262.166 33.3368 261.033C31.4498 258.643 29.6886 255.876 30.4434 254.24C31.0724 252.731 34.3432 252.605 37.3624 252.982C39.8783 253.234 42.1427 251.473 42.5201 248.957C44.6587 230.213 22.8955 243.296 22.8955 243.296Z" fill="#EBEBEB"/>
<path d="M68.4349 223.419C68.4349 223.419 80.1343 204.046 88.6886 221.532C90.0724 224.426 90.953 227.319 91.3304 230.213C87.6822 228.577 80.1342 225.684 80.0084 229.709C79.8827 232.854 84.4114 238.138 87.808 241.66C89.695 243.673 90.4498 246.566 89.695 249.208C87.808 256.127 85.1662 260.908 85.1662 260.908C85.1662 260.908 82.6502 259.901 78.8763 258.14C76.4861 257.008 74.8507 254.743 74.3475 252.227C73.8443 249.334 72.8379 246.441 71.3283 245.434C69.8187 244.554 68.5607 246.189 67.6801 248.076C67.0511 249.711 65.0383 250.215 63.6546 249.208C61.7676 247.824 60.0064 246.441 58.2452 244.805C57.2388 243.925 57.113 242.289 57.9936 241.157C59.8806 238.767 61.6418 235.999 60.887 234.364C60.258 232.854 56.9872 232.729 53.968 233.106C51.452 233.358 49.1876 231.596 48.8102 229.08C46.6717 210.336 68.4349 223.419 68.4349 223.419Z" fill="#E6E6E6"/>
<path d="M19.373 309.592C19.373 298.899 36.1043 303.302 40.3815 286.696C42.0169 280.406 28.3048 266.191 28.3048 266.191H70.8249C70.8249 266.191 57.1128 280.406 58.7482 286.696C63.0254 303.302 79.7567 298.899 79.7567 309.592C79.7567 321.417 56.1064 345.948 54.9742 373.624C54.8484 376.14 59.3772 381.172 59.3772 381.172H39.7525C39.7525 381.172 44.2813 376.014 44.1555 373.624C43.1491 345.948 19.373 321.417 19.373 309.592Z" fill="#F0F0F0"/>
<path d="M58.2451 261.033C58.2451 261.033 70.3219 251.85 72.5863 264.682C72.9637 266.82 72.8379 268.833 72.5863 270.72C70.4477 268.959 65.7931 265.311 64.9125 267.701C64.1577 269.588 66.1705 273.865 67.6801 276.884C68.5607 278.519 68.4349 280.532 67.4285 282.042C64.6609 285.816 61.8933 288.206 61.8933 288.206C61.8933 288.206 60.3837 286.948 58.1194 284.935C56.7356 283.677 55.9808 281.916 56.2324 280.155C56.484 278.268 56.484 276.255 55.6034 275.249C54.7228 274.368 53.5906 275.123 52.5842 276.003C51.8294 276.758 50.3198 276.758 49.565 275.752C48.5586 274.494 47.678 273.11 46.7974 271.726C46.2942 270.971 46.5458 269.965 47.3006 269.462C49.0618 268.456 50.823 267.072 50.6972 265.94C50.5714 264.807 48.4328 264.053 46.1684 263.549C44.4072 263.172 43.1492 261.537 43.5266 259.901C46.1684 247.824 58.2451 261.033 58.2451 261.033Z" fill="#E0E0E0"/>
<path d="M139.385 33.0852L159.891 0L146.808 36.6076L185.428 32.0788L148.569 44.6587L176.245 71.9571L143.537 51.0745L139.385 89.6948L135.36 51.0745L102.526 71.9571L130.202 44.6587L93.4688 32.0788L132.089 36.6076L118.88 0L139.385 33.0852Z" fill="#F0F0F0"/>
<path d="M179.068 207.304C179.068 207.304 174.413 275.991 172.023 307.818C169.507 341.28 171.772 387.826 174.665 409.338C172.904 410.596 167.369 410.344 163.595 409.463C163.595 409.463 141.831 350.715 148.499 312.85C143.215 288.696 145.102 270.078 143.089 256.24C138.812 227.684 148.247 214.6 148.247 214.6L179.068 207.304Z" fill="#B55B52"/>
<path d="M185.232 206.675C185.232 206.675 209.26 268.82 219.575 299.138C230.394 330.965 248.383 370.088 259.58 388.832C258.447 390.594 253.415 393.11 249.641 393.739C249.641 393.739 208.505 348.325 201.209 312.472C156.424 249.195 158.689 212.965 158.689 212.965L185.232 206.675Z" fill="#B55B52"/>
<path opacity="0.2" d="M210.895 274.607C205.108 276.368 193.912 279.513 181.584 281.651C174.539 269.072 169.633 258.001 166.236 248.692L198.064 240.389C202.341 251.334 206.869 263.411 210.895 274.607Z" fill="black"/>
<path opacity="0.2" d="M176.426 246.176C175.671 258.001 174.665 270.959 173.91 282.909C163.469 284.293 152.902 284.545 144.725 282.28C144.222 272.217 144.222 263.536 143.089 256.24C142.964 255.737 142.964 255.359 142.964 254.856L176.426 246.176Z" fill="black"/>
<path d="M162.966 156.859C165.607 162.394 168.375 167.552 171.52 172.709C174.791 177.867 177.936 182.899 182.59 187.931C183.848 189.189 185.106 190.447 186.867 191.705C187.371 192.082 187.748 192.334 188.377 192.586C188.88 192.963 189.383 193.089 189.887 193.34C190.767 193.718 191.774 194.095 192.528 194.347C195.925 195.353 198.944 195.731 202.089 195.982C208.253 196.611 214.166 196.485 220.204 196.108C222.091 195.982 223.601 194.221 223.475 192.334C223.349 190.824 222.217 189.566 220.833 189.189H220.707C215.172 187.931 209.385 186.673 204.102 185.289C201.46 184.534 198.818 183.78 196.68 182.899C196.177 182.647 195.673 182.396 195.296 182.27C195.17 182.144 194.919 182.019 194.919 182.019C194.793 182.019 194.667 181.893 194.541 181.767C194.038 181.264 193.157 180.383 192.528 179.503C191.019 177.616 189.509 175.351 188 173.087C186.49 170.697 185.106 168.306 183.722 165.916C180.955 161.01 178.187 155.852 175.671 150.946V150.82C173.91 147.424 169.633 146.04 166.236 147.801C162.714 149.311 161.456 153.462 162.966 156.859Z" fill="#B55B52"/>
<path d="M163.217 146.04C163.217 146.04 176.3 140.253 185.735 165.79C185.735 165.79 182.59 172.206 171.646 174.093C171.646 174.219 163.217 158.746 163.217 146.04Z" fill="#40B93C"/>
<path opacity="0.2" d="M163.217 146.04C163.217 146.04 176.3 140.253 185.735 165.79C185.735 165.79 182.59 172.206 171.646 174.093C171.646 174.219 163.217 158.746 163.217 146.04Z" fill="black"/>
<path d="M171.772 176.106C171.772 176.106 181.081 175.351 187.748 166.419L186.616 164.155L183.597 162.142C183.597 162.142 180.2 168.181 168.501 170.822L171.772 176.106Z" fill="#40B93C"/>
<path opacity="0.7" d="M171.772 176.106C171.772 176.106 181.081 175.351 187.748 166.419L186.616 164.155L183.597 162.142C183.597 162.142 180.2 168.181 168.501 170.822L171.772 176.106Z" fill="white"/>
<path d="M185.358 419.402C177.433 420.031 176.426 420.031 171.897 420.156C168.123 420.282 167.243 420.911 164.098 421.037C161.582 421.163 161.456 418.773 161.959 415.879C162.211 414.495 162.588 411.35 162.966 409.086L174.539 407.325C176.426 410.344 180.452 414.495 184.981 414.747C189.384 414.873 188.503 419.15 185.358 419.402Z" fill="#263238"/>
<path d="M274.046 394.493C267.002 398.142 265.995 398.519 261.97 400.406C258.573 402.041 257.944 402.922 255.177 404.306C252.912 405.438 251.78 403.174 251.277 400.406C251.025 399.022 250.145 396.003 249.516 393.739L259.454 387.574C262.347 389.587 267.631 391.852 271.908 390.342C275.933 388.832 276.814 392.984 274.046 394.493Z" fill="#263238"/>
<path d="M186.49 206.046L210.769 268.694C210.769 268.694 176.929 282.28 141.957 278.506C141.957 278.506 143.592 268.191 141.957 260.014C140.322 251.837 138.057 233.974 146.36 214.726L147.366 212.965L184.603 204.411L186.49 206.046Z" fill="#40B93C"/>
<g opacity="0.5">
<path d="M182.213 276.494L180.703 243.409L186.868 275.487C185.358 275.865 183.723 276.242 182.213 276.494Z" fill="black"/>
<path d="M171.772 266.304L172.275 278.003C170.765 278.129 169.256 278.381 167.746 278.506L171.772 266.304Z" fill="black"/>
<path d="M195.799 273.349L189.384 243.409L200.328 272.091C198.944 272.594 197.435 272.971 195.799 273.349Z" fill="black"/>
<path d="M158.06 257.875L158.311 279.01C156.676 279.01 155.04 279.01 153.405 279.01L158.06 257.875Z" fill="black"/>
</g>
<path d="M232.658 189.063L229.891 187.428C228.884 186.799 227.626 186.799 226.494 187.302L221.336 189.692C219.324 190.699 217.814 192.46 217.437 194.724L217.185 196.108C221.588 199.001 228.507 199.001 228.507 199.001L230.52 199.253C232.281 199.379 233.791 198.247 234.042 196.485L234.42 192.586C234.671 191.076 233.916 189.692 232.658 189.063Z" fill="#B55B52"/>
<path d="M185.232 208.562L147.87 215.984C146.234 216.362 144.725 215.229 144.599 213.594C143.97 207.807 140.825 192.586 125.352 157.11C125.352 157.11 137.051 145.663 161.079 145.914C166.488 145.914 171.52 148.933 174.036 153.714C178.061 161.262 183.345 176.232 187.371 205.417C187.622 206.927 186.616 208.311 185.232 208.562Z" fill="#263238"/>
<path d="M156.047 146.04C157.431 147.172 160.324 150.569 158.06 156.355C158.06 156.355 146.738 150.82 138.309 149.688C142.964 147.927 148.876 146.417 156.047 146.04Z" fill="#B55B52"/>
<path d="M125.1 106.916C125.1 106.916 125.478 85.5305 119.942 83.0145C114.785 80.7501 116.043 89.0529 116.043 89.0529C116.043 89.0529 109.501 76.7246 103.211 78.1083C97.8017 79.3663 105.727 87.5433 105.727 87.5433C105.727 87.5433 94.4051 82.5113 92.1407 86.0337C89.8764 89.5561 96.2921 93.8333 96.2921 93.8333C96.2921 93.8333 86.2282 94.3365 86.6056 98.6136C86.983 102.891 97.5501 103.142 97.5501 103.142C97.5501 103.142 88.6184 104.904 89.7506 109.936C90.7569 114.716 102.708 112.452 102.708 112.452C102.708 112.452 94.6567 114.339 96.1663 118.616C98.0533 123.899 109.375 119.119 109.375 119.119C109.375 119.119 103.463 122.641 105.727 125.66C109.627 130.944 122.71 115.219 122.71 115.219L125.1 106.916Z" fill="#263238"/>
<path d="M130.258 104.904C130.258 104.904 122.961 102.388 120.571 110.061C117.804 118.867 127.364 120.88 127.364 120.88L130.258 104.904Z" fill="#40B93C"/>
<path d="M134.912 131.07C137.806 136.353 142.209 146.292 139.441 151.072C139.441 151.072 144.599 148.933 157.808 153.336C159.946 147.801 157.179 146.921 157.179 146.921C150.386 146.921 149.002 142.266 148.75 137.737L134.912 131.07Z" fill="#B55B52"/>
<path opacity="0.2" d="M140.448 133.712L148.624 137.611C148.624 138.744 148.876 139.75 149.002 140.882C146.486 141.134 142.334 139.247 141.202 136.857C140.825 135.599 140.448 134.341 140.448 133.712Z" fill="black"/>
<path d="M127.364 120.88C131.264 129.686 132.774 133.46 139.064 136.605C148.499 141.385 158.563 135.221 157.305 125.66C156.172 116.98 150.008 104.149 139.819 103.394C129.755 102.513 123.339 112.074 127.364 120.88Z" fill="#B55B52"/>
<path d="M141.58 119.496C141.832 120.251 142.46 120.754 142.964 120.628C143.467 120.503 143.593 119.748 143.341 118.993C143.089 118.238 142.46 117.735 141.957 117.861C141.454 118.112 141.328 118.741 141.58 119.496Z" fill="#263238"/>
<path d="M151.015 116.225C151.266 116.98 151.895 117.483 152.399 117.358C152.902 117.232 153.027 116.477 152.776 115.722C152.524 114.967 151.895 114.464 151.392 114.59C150.889 114.716 150.763 115.471 151.015 116.225Z" fill="#263238"/>
<path d="M151.141 114.716L152.776 113.584C152.776 113.584 152.399 115.345 151.141 114.716Z" fill="#263238"/>
<path d="M147.87 118.49C147.87 118.49 150.386 121.257 152.399 122.39C151.77 123.648 149.883 123.773 149.883 123.773L147.87 118.49Z" fill="#A02724"/>
<path d="M149.379 129.057C149.757 129.057 150.26 128.931 150.637 128.805C150.763 128.805 150.763 128.68 150.763 128.554C150.763 128.428 150.637 128.428 150.512 128.428C147.241 129.434 144.851 127.673 144.725 127.673C144.599 127.547 144.473 127.547 144.347 127.673C144.222 127.799 144.347 127.925 144.347 128.051C144.599 127.925 146.612 129.309 149.379 129.057Z" fill="#263238"/>
<path d="M136.171 115.345C136.296 115.345 136.422 115.219 136.422 115.093C137.429 113.332 139.064 113.206 139.064 113.206C139.316 113.206 139.567 112.955 139.441 112.703C139.441 112.452 139.19 112.2 138.938 112.2C138.812 112.2 136.674 112.326 135.542 114.464C135.416 114.716 135.542 114.967 135.793 115.093C135.919 115.345 136.045 115.345 136.171 115.345Z" fill="#263238"/>
<path d="M150.763 110.061C150.889 110.061 151.015 109.936 151.015 109.936C151.141 109.684 151.141 109.432 150.889 109.307C148.75 107.671 146.738 108.174 146.612 108.174C146.36 108.3 146.234 108.552 146.36 108.803C146.486 109.055 146.738 109.181 146.989 109.181C147.115 109.181 148.625 108.803 150.386 110.061C150.512 110.061 150.637 110.061 150.763 110.061Z" fill="#263238"/>
<path d="M141.831 117.987L143.467 116.854C143.341 116.854 142.963 118.616 141.831 117.987Z" fill="#263238"/>
<path d="M132.522 128.302C132.522 128.302 137.428 126.541 130.258 113.584C130.258 113.584 136.17 114.464 134.158 109.055C134.158 109.055 141.077 112.452 139.567 106.287C139.567 106.287 144.851 109.181 144.851 104.778C144.851 104.778 149.379 105.281 149.002 101.255C148.625 97.2298 126.735 95.9718 124.094 111.571C124.094 111.571 118.307 120.125 132.522 128.302Z" fill="#263238"/>
<path d="M127.113 129.183C128.874 130.692 130.887 131.196 132.648 131.07C135.29 130.818 135.416 128.176 133.78 126.038C132.271 124.151 129.126 121.886 126.987 123.27C124.974 124.402 125.1 127.422 127.113 129.183Z" fill="#B55B52"/>
<path d="M153.782 145.914C153.782 145.914 159.066 147.927 157.682 155.726C157.682 155.726 155.166 151.072 137.554 148.933L132.522 152.33C132.522 152.33 142.586 158.871 150.008 160.884C150.008 160.884 149.002 157.613 152.273 154.594C152.273 154.594 156.298 155.726 158.437 158.62C158.437 158.62 160.072 156.733 159.695 151.827C159.695 151.827 162.84 152.33 164.098 156.984C164.098 156.984 165.985 153.839 161.079 145.914H153.782Z" fill="#40B93C"/>
<path opacity="0.7" d="M153.782 145.914C153.782 145.914 159.066 147.927 157.682 155.726C157.682 155.726 155.166 151.072 137.554 148.933L132.522 152.33C132.522 152.33 142.586 158.871 150.008 160.884C150.008 160.884 149.002 157.613 152.273 154.594C152.273 154.594 156.298 155.726 158.437 158.62C158.437 158.62 160.072 156.733 159.695 151.827C159.695 151.827 162.84 152.33 164.098 156.984C164.098 156.984 165.985 153.839 161.079 145.914H153.782Z" fill="white"/>
<path d="M60.9425 407.954C61.0683 407.954 73.145 405.438 121.326 405.438C128.245 405.438 149.002 402.796 153.656 397.513C175.42 372.73 165.356 294.609 159.192 247.937C157.556 235.735 156.298 226.048 156.298 221.771C156.298 218.5 157.43 215.984 159.695 214.223C167.872 207.682 188.503 210.449 195.673 211.959L197.057 205.795C195.925 205.543 167.872 199.505 155.795 209.317C152.021 212.336 150.008 216.613 150.008 221.771C150.008 226.426 151.266 235.735 152.902 248.692C158.437 291.338 168.752 370.592 148.876 393.235C145.48 397.135 126.358 399.022 121.2 399.022C71.887 399.022 59.9361 401.664 59.4329 401.664L60.9425 407.954Z" fill="#40B93C"/>
<g opacity="0.7">
<path d="M60.9425 407.954C61.0683 407.954 73.145 405.438 121.326 405.438C128.245 405.438 149.002 402.796 153.656 397.513C175.42 372.73 165.356 294.609 159.192 247.937C157.556 235.735 156.298 226.048 156.298 221.771C156.298 218.5 157.43 215.984 159.695 214.223C167.872 207.682 188.503 210.449 195.673 211.959L197.057 205.795C195.925 205.543 167.872 199.505 155.795 209.317C152.021 212.336 150.008 216.613 150.008 221.771C150.008 226.426 151.266 235.735 152.902 248.692C158.437 291.338 168.752 370.592 148.876 393.235C145.48 397.135 126.358 399.022 121.2 399.022C71.887 399.022 59.9361 401.664 59.4329 401.664L60.9425 407.954Z" fill="white"/>
</g>
<path d="M229.513 186.799V202.524V210.575V226.3L170.01 216.991C167.117 216.487 165.104 214.097 165.104 211.204V210.575V202.524V201.895C165.104 199.001 167.243 196.611 170.01 196.108L229.513 186.799Z" fill="#40B93C"/>
<path opacity="0.4" d="M229.513 186.799V202.524V210.575V226.3L170.01 216.991C167.117 216.487 165.104 214.097 165.104 211.204V210.575V202.524V201.895C165.104 199.001 167.243 196.611 170.01 196.108L229.513 186.799Z" fill="white"/>
<path opacity="0.2" d="M170.01 211.833L229.513 221.142V226.3L170.01 216.991C167.117 216.487 165.104 214.097 165.104 211.204V210.575V206.172C165.104 208.94 167.243 211.456 170.01 211.833Z" fill="#263238"/>
<path d="M232.029 183.402H264.737V204.411H203.725V193.592L232.029 183.402Z" fill="#40B93C"/>
<path opacity="0.6" d="M232.029 183.402H264.737V204.411H203.725V193.592L232.029 183.402Z" fill="white"/>
<path d="M236.558 226.803L264.737 216.613V183.402L236.558 193.592V226.803Z" fill="#40B93C"/>
<path opacity="0.4" d="M236.558 226.803L264.737 216.613V183.402L236.558 193.592V226.803Z" fill="white"/>
<path d="M203.828 226.91H236.535V193.699H203.828V226.91Z" fill="#40B93C"/>
<path opacity="0.2" d="M203.828 226.91H236.535V193.699H203.828V226.91Z" fill="white"/>
<path d="M258.447 185.667C257.441 181.767 254.547 178.874 251.025 178.874H245.113C240.835 178.874 237.313 183.151 237.313 188.434C237.313 189.315 237.439 190.195 237.565 190.95H243.477L258.447 185.667Z" fill="#40B93C"/>
<path opacity="0.6" d="M258.447 185.667C257.441 181.767 254.547 178.874 251.025 178.874H245.113C240.835 178.874 237.313 183.151 237.313 188.434C237.313 189.315 237.439 190.195 237.565 190.95H243.477L258.447 185.667Z" fill="white"/>
<path d="M243.603 191.076L258.573 185.667C257.567 181.767 254.673 178.874 251.151 178.874C246.874 178.874 243.351 183.151 243.351 188.434C243.226 189.441 243.351 190.321 243.603 191.076Z" fill="#40B93C"/>
<path opacity="0.4" d="M243.603 191.076L258.573 185.667C257.567 181.767 254.673 178.874 251.151 178.874C246.874 178.874 243.351 183.151 243.351 188.434C243.226 189.441 243.351 190.321 243.603 191.076Z" fill="white"/>
<path d="M255.931 190.321V186.296C255.302 183.654 253.29 181.767 251.025 181.767C248.132 181.767 245.867 184.66 245.867 188.183V193.969L239.955 196.108V221.897L261.341 214.223V188.434L255.931 190.321Z" fill="#263238"/>
<path d="M239.955 197.618H283.733V209.191H239.955V203.279V197.618Z" fill="#263238"/>
<path opacity="0.8" d="M239.955 197.618H283.733V209.191H239.955V203.279V197.618Z" fill="white"/>
<path d="M268.385 221.394L283.733 215.858V197.618L268.385 203.279V221.394Z" fill="#263238"/>
<path d="M239.938 221.37H268.369V203.255H239.938V221.37Z" fill="#263238"/>
<path opacity="0.4" d="M239.938 221.37H268.369V203.255H239.938V221.37Z" fill="white"/>
<path opacity="0.6" d="M268.385 221.394L283.733 215.858V197.618L268.385 203.279V221.394Z" fill="white"/>
<path d="M270.776 220.513L281.343 216.739V211.581L270.776 215.355V220.513Z" fill="#40B93C"/>
<path d="M246.874 184.409C246.245 185.415 245.867 186.799 245.867 188.183V191.453L268.008 198.624L276.185 196.485V193.969L246.874 184.409Z" fill="#263238"/>
<path opacity="0.8" d="M246.874 184.409C246.245 185.415 245.867 186.799 245.867 188.183V191.453L268.008 198.624L276.185 196.485V193.969L246.874 184.409Z" fill="white"/>
<path d="M276.185 193.969L267.253 197.114V201.392L276.185 198.247V193.969Z" fill="#263238"/>
<path opacity="0.6" d="M276.185 193.969L267.253 197.114V201.392L276.185 198.247V193.969Z" fill="white"/>
<path d="M245.867 190.195V193.969L245.113 194.221L267.253 201.392V197.114L245.867 190.195Z" fill="#263238"/>
<path opacity="0.4" d="M245.867 190.195V193.969L245.113 194.221L267.253 201.392V197.114L245.867 190.195Z" fill="white"/>
<path d="M172.275 195.479L169.759 193.466C168.878 192.711 167.62 192.46 166.362 192.837L160.953 194.347C158.814 194.976 157.053 196.611 156.298 198.624L155.795 199.882C159.695 203.53 166.614 204.537 166.614 204.537L168.501 205.04C170.262 205.543 171.897 204.537 172.4 202.901L173.407 199.127C173.91 197.869 173.407 196.36 172.275 195.479Z" fill="#B55B52"/>
<path d="M120.823 168.432C119.565 174.093 118.684 179.503 118.433 185.415C118.307 188.434 118.433 191.328 119.062 194.976C119.313 195.856 119.439 196.863 119.942 197.869C120.32 198.876 120.823 200.008 121.829 201.392C122.836 202.775 124.094 203.656 125.1 204.285C126.106 204.914 127.113 205.291 128.119 205.669C130.006 206.298 131.642 206.549 133.277 206.675C134.912 206.801 136.422 206.927 137.806 206.927C140.825 206.927 143.593 206.675 146.36 206.298C151.895 205.543 157.305 204.537 162.588 202.901C164.475 202.398 165.482 200.385 164.978 198.624C164.475 197.114 163.091 196.108 161.582 196.108H161.456C156.298 196.234 150.889 196.234 145.857 196.108C143.341 195.982 140.825 195.856 138.435 195.605C137.303 195.479 136.045 195.227 135.038 194.976C134.032 194.724 133.025 194.473 132.396 194.095C131.767 193.844 131.516 193.34 132.145 193.969C132.396 194.347 132.145 193.718 132.145 192.837C131.893 191.076 132.145 188.686 132.271 186.421C132.522 184.031 132.9 181.515 133.277 179.125C133.654 176.609 134.158 174.093 134.535 171.703V171.451C135.164 167.677 132.648 164.029 128.874 163.274C125.226 162.394 121.704 164.784 120.823 168.432Z" fill="#B55B52"/>
<path d="M134.912 181.767C134.912 181.767 125.1 181.893 117.678 177.364C117.678 177.364 117.426 161.01 126.861 155.726C136.296 150.443 134.912 181.767 134.912 181.767Z" fill="#40B93C"/>
<path opacity="0.2" d="M134.912 181.767C134.912 181.767 125.1 181.893 117.678 177.364C117.678 177.364 117.426 161.01 126.861 155.726C136.296 150.443 134.912 181.767 134.912 181.767Z" fill="black"/>
<path d="M121.452 175.854L122.836 180.257L124.471 176.609C127.49 177.238 131.516 177.741 136.548 177.993V183.78C136.548 183.78 126.232 184.409 115.917 178.874V173.967C115.917 173.842 117.552 174.848 121.452 175.854Z" fill="#40B93C"/>
<path opacity="0.7" d="M121.452 175.854L122.836 180.257L124.471 176.609C127.49 177.238 131.516 177.741 136.548 177.993V183.78C136.548 183.78 126.232 184.409 115.917 178.874V173.967C115.917 173.842 117.552 174.848 121.452 175.854Z" fill="white"/>
</svg>
